<svg width="48" height="48" viewBox="0 0 48 48" fill="none" xmlns="http://www.w3.org/2000/svg">
<g filter="url(#filter0_d_79_421)">
<circle cx="24" cy="23" r="20" fill="#DCDFE7"/>
<circle cx="24.6154" cy="13.1538" r="5.53846" fill="#FAFAFA"/>
<path d="M12.9231 23C12.9231 24.4546 13.2096 25.895 13.7662 27.2389C14.3229 28.5829 15.1388 29.804 16.1674 30.8325C17.196 31.8611 18.4171 32.6771 19.761 33.2337C21.1049 33.7904 22.5453 34.0769 24 34.0769C25.4546 34.0769 26.895 33.7904 28.2389 33.2337C29.5829 32.6771 30.804 31.8611 31.8325 30.8325C32.8611 29.804 33.6771 28.5828 34.2337 27.2389C34.7904 25.895 35.0769 24.4546 35.0769 23L24 23L12.9231 23Z" fill="#C3C4CC"/>
<path d="M8.61529 23C8.61529 25.0204 9.01322 27.0209 9.78637 28.8875C10.5595 30.754 11.6927 32.45 13.1213 33.8786C14.5499 35.3072 16.2459 36.4404 18.1125 37.2136C19.979 37.9867 21.9796 38.3846 23.9999 38.3846C26.0202 38.3846 28.0208 37.9867 29.8873 37.2136C31.7539 36.4404 33.4499 35.3072 34.8785 33.8786C36.3071 32.45 37.4403 30.754 38.2134 28.8875C38.9866 27.0209 39.3845 25.0204 39.3845 23L35.1601 23C35.1601 24.4656 34.8714 25.9168 34.3105 27.2708C33.7497 28.6248 32.9276 29.8551 31.8913 30.8914C30.855 31.9278 29.6247 32.7498 28.2707 33.3107C26.9167 33.8715 25.4655 34.1602 23.9999 34.1602C22.5343 34.1602 21.0831 33.8715 19.7291 33.3107C18.3751 32.7498 17.1448 31.9278 16.1085 30.8914C15.0722 29.8551 14.2501 28.6248 13.6893 27.2708C13.1284 25.9168 12.8398 24.4656 12.8398 23H8.61529Z" fill="#D9D9D9"/>
<g filter="url(#filter1_d_79_421)">
<path d="M8.61529 23C8.61529 25.0204 9.01322 27.0209 9.78637 28.8875C10.5595 30.754 11.6927 32.45 13.1213 33.8786C14.5499 35.3072 16.2459 36.4404 18.1125 37.2136C19.979 37.9867 21.9796 38.3846 23.9999 38.3846C26.0202 38.3846 28.0208 37.9867 29.8873 37.2136C31.7539 36.4404 33.4499 35.3072 34.8785 33.8786C36.3071 32.45 37.4403 30.754 38.2134 28.8875C38.9866 27.0209 39.3845 25.0204 39.3845 23L35.1601 23C35.1601 24.4656 34.8714 25.9168 34.3105 27.2708C33.7497 28.6248 32.9276 29.8551 31.8913 30.8914C30.855 31.9278 29.6247 32.7498 28.2707 33.3107C26.9167 33.8715 25.4655 34.1602 23.9999 34.1602C22.5343 34.1602 21.0831 33.8715 19.7291 33.3107C18.3751 32.7498 17.1448 31.9278 16.1085 30.8914C15.0722 29.8551 14.2501 28.6248 13.6893 27.2708C13.1284 25.9168 12.8398 24.4656 12.8398 23H8.61529Z" fill="#FAFAFA"/>
</g>
<path d="M17.8461 23C17.8461 23.8082 18.0053 24.6084 18.3145 25.355C18.6238 26.1016 19.0771 26.78 19.6485 27.3515C20.22 27.9229 20.8984 28.3762 21.645 28.6854C22.3916 28.9947 23.1918 29.1539 24 29.1539C24.8081 29.1539 25.6083 28.9947 26.3549 28.6854C27.1016 28.3762 27.78 27.9229 28.3514 27.3514C28.9228 26.78 29.3761 26.1016 29.6854 25.355C29.9946 24.6084 30.1538 23.8082 30.1538 23L24 23L17.8461 23Z" fill="#040823"/>
</g>
<defs>
<filter id="filter0_d_79_421" x="0.307692" y="0.538461" width="47.3846" height="47.3846" filterUnits="userSpaceOnUse" color-interpolation-filters="sRGB">
<feFlood flood-opacity="0" result="BackgroundImageFix"/>
<feColorMatrix in="SourceAlpha" type="matrix" values="0 0 0 0 0 0 0 0 0 0 0 0 0 0 0 0 0 0 127 0" result="hardAlpha"/>
<feOffset dy="1.23077"/>
<feGaussianBlur stdDeviation="1.84615"/>
<feComposite in2="hardAlpha" operator="out"/>
<feColorMatrix type="matrix" values="0 0 0 0 0.823529 0 0 0 0 0.839216 0 0 0 0 0.882353 0 0 0 0.25 0"/>
<feBlend mode="normal" in2="BackgroundImageFix" result="effect1_dropShadow_79_421"/>
<feBlend mode="normal" in="SourceGraphic" in2="effect1_dropShadow_79_421" result="shape"/>
</filter>
<filter id="filter1_d_79_421" x="4.92293" y="20.5385" width="38.1539" height="22.7693" filterUnits="userSpaceOnUse" color-interpolation-filters="sRGB">
<feFlood flood-opacity="0" result="BackgroundImageFix"/>
<feColorMatrix in="SourceAlpha" type="matrix" values="0 0 0 0 0 0 0 0 0 0 0 0 0 0 0 0 0 0 127 0" result="hardAlpha"/>
<feOffset dy="1.23077"/>
<feGaussianBlur stdDeviation="1.84615"/>
<feComposite in2="hardAlpha" operator="out"/>
<feColorMatrix type="matrix" values="0 0 0 0 0.623529 0 0 0 0 0.631373 0 0 0 0 0.67451 0 0 0 0.58 0"/>
<feBlend mode="normal" in2="BackgroundImageFix" result="effect1_dropShadow_79_421"/>
<feBlend mode="normal" in="SourceGraphic" in2="effect1_dropShadow_79_421" result="shape"/>
</filter>
</defs>
</svg>