<svg width="43" height="52" viewBox="0 0 43 52" fill="none" xmlns="http://www.w3.org/2000/svg">
<g filter="url(#filter0_d_20_1467)">
<path d="M21.6412 3.18177C21.463 3.07053 21.237 3.07053 21.0588 3.18177L3.98516 13.8385C3.82419 13.9389 3.72638 14.1153 3.72638 14.3051V35.6949C3.72638 35.8847 3.82419 36.0611 3.98516 36.1615L21.0588 46.8182C21.237 46.9295 21.463 46.9295 21.6412 46.8182L38.7148 36.1615C38.8758 36.0611 38.9736 35.8847 38.9736 35.6949V14.3051C38.9736 14.1153 38.8758 13.9389 38.7148 13.8385L21.6412 3.18177Z" fill="url(#paint0_linear_20_1467)"/>
<g filter="url(#filter1_d_20_1467)">
<path d="M21.185 21.425L7.98501 31.05L21.185 40.675L34.385 31.05L21.185 21.425Z" fill="#EAEBF1"/>
</g>
<g filter="url(#filter2_d_20_1467)">
<path d="M21.35 15.65L7.325 25.275L21.35 34.9L35.375 25.275L21.35 15.65Z" fill="#E5E7EA"/>
</g>
<g filter="url(#filter3_d_20_1467)">
<path d="M21.185 9.32501L7.98501 18.95L21.185 28.575L34.385 18.95L21.185 9.32501Z" fill="#FAFAFA"/>
<path d="M21.35 13.45L14.75 18.8125L21.35 24.175L27.95 18.8125L21.35 13.45Z" fill="#040823"/>
</g>
</g>
<defs>
<filter id="filter0_d_20_1467" x="-2.3" y="0.8" width="47.3" height="50.6" filterUnits="userSpaceOnUse" color-interpolation-filters="sRGB">
<feFlood flood-opacity="0" result="BackgroundImageFix"/>
<feColorMatrix in="SourceAlpha" type="matrix" values="0 0 0 0 0 0 0 0 0 0 0 0 0 0 0 0 0 0 127 0" result="hardAlpha"/>
<feOffset dy="1.1"/>
<feGaussianBlur stdDeviation="1.65"/>
<feComposite in2="hardAlpha" operator="out"/>
<feColorMatrix type="matrix" values="0 0 0 0 0.823529 0 0 0 0 0.839216 0 0 0 0 0.882353 0 0 0 0.25 0"/>
<feBlend mode="normal" in2="BackgroundImageFix" result="effect1_dropShadow_20_1467"/>
<feBlend mode="normal" in="SourceGraphic" in2="effect1_dropShadow_20_1467" result="shape"/>
</filter>
<filter id="filter1_d_20_1467" x="4.68502" y="19.225" width="33" height="25.85" filterUnits="userSpaceOnUse" color-interpolation-filters="sRGB">
<feFlood flood-opacity="0" result="BackgroundImageFix"/>
<feColorMatrix in="SourceAlpha" type="matrix" values="0 0 0 0 0 0 0 0 0 0 0 0 0 0 0 0 0 0 127 0" result="hardAlpha"/>
<feOffset dy="1.1"/>
<feGaussianBlur stdDeviation="1.65"/>
<feComposite in2="hardAlpha" operator="out"/>
<feColorMatrix type="matrix" values="0 0 0 0 0.623529 0 0 0 0 0.631373 0 0 0 0 0.67451 0 0 0 0.8 0"/>
<feBlend mode="normal" in2="BackgroundImageFix" result="effect1_dropShadow_20_1467"/>
<feBlend mode="normal" in="SourceGraphic" in2="effect1_dropShadow_20_1467" result="shape"/>
</filter>
<filter id="filter2_d_20_1467" x="4.02501" y="13.45" width="34.65" height="25.85" filterUnits="userSpaceOnUse" color-interpolation-filters="sRGB">
<feFlood flood-opacity="0" result="BackgroundImageFix"/>
<feColorMatrix in="SourceAlpha" type="matrix" values="0 0 0 0 0 0 0 0 0 0 0 0 0 0 0 0 0 0 127 0" result="hardAlpha"/>
<feOffset dy="1.1"/>
<feGaussianBlur stdDeviation="1.65"/>
<feComposite in2="hardAlpha" operator="out"/>
<feColorMatrix type="matrix" values="0 0 0 0 0.623529 0 0 0 0 0.631373 0 0 0 0 0.67451 0 0 0 0.8 0"/>
<feBlend mode="normal" in2="BackgroundImageFix" result="effect1_dropShadow_20_1467"/>
<feBlend mode="normal" in="SourceGraphic" in2="effect1_dropShadow_20_1467" result="shape"/>
</filter>
<filter id="filter3_d_20_1467" x="4.68502" y="7.12501" width="33" height="25.85" filterUnits="userSpaceOnUse" color-interpolation-filters="sRGB">
<feFlood flood-opacity="0" result="BackgroundImageFix"/>
<feColorMatrix in="SourceAlpha" type="matrix" values="0 0 0 0 0 0 0 0 0 0 0 0 0 0 0 0 0 0 127 0" result="hardAlpha"/>
<feOffset dy="1.1"/>
<feGaussianBlur stdDeviation="1.65"/>
<feComposite in2="hardAlpha" operator="out"/>
<feColorMatrix type="matrix" values="0 0 0 0 0.623529 0 0 0 0 0.631373 0 0 0 0 0.67451 0 0 0 0.8 0"/>
<feBlend mode="normal" in2="BackgroundImageFix" result="effect1_dropShadow_20_1467"/>
<feBlend mode="normal" in="SourceGraphic" in2="effect1_dropShadow_20_1467" result="shape"/>
</filter>
<linearGradient id="paint0_linear_20_1467" x1="21.35" y1="3" x2="12.1375" y2="44.9375" gradientUnits="userSpaceOnUse">
<stop stop-color="#D7DBE6" stop-opacity="0.64"/>
<stop offset="1" stop-color="#D6DAE5" stop-opacity="0.81"/>
</linearGradient>
</defs>
</svg>
