<svg width="48" height="48" viewBox="0 0 48 48" fill="none" xmlns="http://www.w3.org/2000/svg">
<g filter="url(#filter0_d_20_1529)">
<circle cx="24" cy="23" r="20" fill="#DCDFE7"/>
<circle cx="24.6154" cy="13.1538" r="5.53846" fill="#FAFAFA"/>
<path d="M12.9231 23C12.9231 24.4547 13.2096 25.8951 13.7662 27.239C14.3229 28.5829 15.1388 29.804 16.1674 30.8326C17.196 31.8612 18.4171 32.6771 19.761 33.2338C21.1049 33.7904 22.5453 34.0769 24 34.0769C25.4546 34.0769 26.895 33.7904 28.2389 33.2338C29.5829 32.6771 30.804 31.8612 31.8325 30.8326C32.8611 29.804 33.6771 28.5829 34.2337 27.239C34.7904 25.8951 35.0769 24.4547 35.0769 23L24 23L12.9231 23Z" fill="#C3C4CC"/>
<path d="M8.61541 23C8.61541 25.0203 9.01335 27.0209 9.7865 28.8874C10.5596 30.754 11.6929 32.45 13.1215 33.8786C14.5501 35.3072 16.246 36.4404 18.1126 37.2135C19.9791 37.9867 21.9797 38.3846 24 38.3846C26.0204 38.3846 28.0209 37.9867 29.8875 37.2135C31.754 36.4404 33.45 35.3072 34.8786 33.8786C36.3072 32.45 37.4404 30.754 38.2136 28.8874C38.9867 27.0209 39.3846 25.0203 39.3846 23H35.1602C35.1602 24.4656 34.8715 25.9168 34.3107 27.2708C33.7498 28.6248 32.9278 29.8551 31.8914 30.8914C30.8551 31.9277 29.6248 32.7498 28.2708 33.3106C26.9168 33.8715 25.4656 34.1601 24 34.1601C22.5345 34.1601 21.0832 33.8715 19.7292 33.3106C18.3752 32.7498 17.1449 31.9277 16.1086 30.8914C15.0723 29.8551 14.2502 28.6248 13.6894 27.2708C13.1285 25.9168 12.8399 24.4656 12.8399 23H8.61541Z" fill="#D9D9D9"/>
<g filter="url(#filter1_d_20_1529)">
<path d="M8.61541 23C8.61541 25.0203 9.01335 27.0209 9.7865 28.8874C10.5596 30.754 11.6929 32.45 13.1215 33.8786C14.5501 35.3072 16.246 36.4404 18.1126 37.2135C19.9791 37.9867 21.9797 38.3846 24 38.3846C26.0204 38.3846 28.0209 37.9867 29.8875 37.2135C31.754 36.4404 33.45 35.3072 34.8786 33.8786C36.3072 32.45 37.4404 30.754 38.2136 28.8874C38.9867 27.0209 39.3846 25.0203 39.3846 23H35.1602C35.1602 24.4656 34.8715 25.9168 34.3107 27.2708C33.7498 28.6248 32.9278 29.8551 31.8914 30.8914C30.8551 31.9277 29.6248 32.7498 28.2708 33.3106C26.9168 33.8715 25.4656 34.1601 24 34.1601C22.5345 34.1601 21.0832 33.8715 19.7292 33.3106C18.3752 32.7498 17.1449 31.9277 16.1086 30.8914C15.0723 29.8551 14.2502 28.6248 13.6894 27.2708C13.1285 25.9168 12.8399 24.4656 12.8399 23H8.61541Z" fill="#FAFAFA"/>
</g>
<path d="M17.8461 23C17.8461 23.8081 18.0053 24.6083 18.3145 25.355C18.6238 26.1016 19.0771 26.78 19.6485 27.3514C20.22 27.9229 20.8984 28.3761 21.645 28.6854C22.3916 28.9947 23.1918 29.1538 24 29.1538C24.8081 29.1538 25.6083 28.9947 26.3549 28.6854C27.1016 28.3761 27.78 27.9229 28.3514 27.3514C28.9228 26.78 29.3761 26.1016 29.6854 25.355C29.9946 24.6083 30.1538 23.8081 30.1538 23L24 23L17.8461 23Z" fill="#040823"/>
</g>
<defs>
<filter id="filter0_d_20_1529" x="0.307692" y="0.538461" width="47.3846" height="47.3846" filterUnits="userSpaceOnUse" color-interpolation-filters="sRGB">
<feFlood flood-opacity="0" result="BackgroundImageFix"/>
<feColorMatrix in="SourceAlpha" type="matrix" values="0 0 0 0 0 0 0 0 0 0 0 0 0 0 0 0 0 0 127 0" result="hardAlpha"/>
<feOffset dy="1.23077"/>
<feGaussianBlur stdDeviation="1.84615"/>
<feComposite in2="hardAlpha" operator="out"/>
<feColorMatrix type="matrix" values="0 0 0 0 0.823529 0 0 0 0 0.839216 0 0 0 0 0.882353 0 0 0 0.25 0"/>
<feBlend mode="normal" in2="BackgroundImageFix" result="effect1_dropShadow_20_1529"/>
<feBlend mode="normal" in="SourceGraphic" in2="effect1_dropShadow_20_1529" result="shape"/>
</filter>
<filter id="filter1_d_20_1529" x="4.92305" y="20.5385" width="38.1539" height="22.7692" filterUnits="userSpaceOnUse" color-interpolation-filters="sRGB">
<feFlood flood-opacity="0" result="BackgroundImageFix"/>
<feColorMatrix in="SourceAlpha" type="matrix" values="0 0 0 0 0 0 0 0 0 0 0 0 0 0 0 0 0 0 127 0" result="hardAlpha"/>
<feOffset dy="1.23077"/>
<feGaussianBlur stdDeviation="1.84615"/>
<feComposite in2="hardAlpha" operator="out"/>
<feColorMatrix type="matrix" values="0 0 0 0 0.623529 0 0 0 0 0.631373 0 0 0 0 0.67451 0 0 0 0.58 0"/>
<feBlend mode="normal" in2="BackgroundImageFix" result="effect1_dropShadow_20_1529"/>
<feBlend mode="normal" in="SourceGraphic" in2="effect1_dropShadow_20_1529" result="shape"/>
</filter>
</defs>
</svg>
