<svg width="40" height="41" viewBox="0 0 40 41" fill="none" xmlns="http://www.w3.org/2000/svg">
<circle cx="20" cy="20" r="20" fill="#E4E0FD"/>
<circle cx="20" cy="9.23082" r="4.92308" fill="#F9F9F9"/>
<path d="M4.61529 20C4.61529 22.0204 5.01322 24.0209 5.78637 25.8875C6.55952 27.754 7.69275 29.45 9.12134 30.8786C10.5499 32.3072 12.2459 33.4404 14.1125 34.2136C15.979 34.9867 17.9796 35.3846 19.9999 35.3846C22.0202 35.3846 24.0208 34.9867 25.8873 34.2136C27.7539 33.4404 29.4499 32.3072 30.8785 30.8786C32.3071 29.45 33.4403 27.754 34.2134 25.8875C34.9866 24.0209 35.3845 22.0204 35.3845 20L31.1601 20C31.1601 21.4656 30.8714 22.9168 30.3105 24.2708C29.7497 25.6248 28.9276 26.8551 27.8913 27.8914C26.855 28.9278 25.6247 29.7498 24.2707 30.3107C22.9167 30.8715 21.4655 31.1602 19.9999 31.1602C18.5343 31.1602 17.0831 30.8715 15.7291 30.3107C14.3751 29.7498 13.1448 28.9278 12.1085 27.8914C11.0722 26.8551 10.2501 25.6248 9.68927 24.2708C9.12842 22.9168 8.83976 21.4656 8.83976 20H4.61529Z" fill="#D9D9D9"/>
<g filter="url(#filter0_d_85_455)">
<path d="M4.61529 20C4.61529 22.0204 5.01322 24.0209 5.78637 25.8875C6.55952 27.754 7.69275 29.45 9.12134 30.8786C10.5499 32.3072 12.2459 33.4404 14.1125 34.2136C15.979 34.9867 17.9796 35.3846 19.9999 35.3846C22.0202 35.3846 24.0208 34.9867 25.8873 34.2136C27.7539 33.4404 29.4499 32.3072 30.8785 30.8786C32.3071 29.45 33.4403 27.754 34.2134 25.8875C34.9866 24.0209 35.3845 22.0204 35.3845 20L31.1601 20C31.1601 21.4656 30.8714 22.9168 30.3105 24.2708C29.7497 25.6248 28.9276 26.8551 27.8913 27.8914C26.855 28.9278 25.6247 29.7498 24.2707 30.3107C22.9167 30.8715 21.4655 31.1602 19.9999 31.1602C18.5343 31.1602 17.0831 30.8715 15.7291 30.3107C14.3751 29.7498 13.1448 28.9278 12.1085 27.8914C11.0722 26.8551 10.2501 25.6248 9.68927 24.2708C9.12842 22.9168 8.83976 21.4656 8.83976 20H4.61529Z" fill="#FAFAFA"/>
</g>
<path d="M13.8461 20C13.8461 20.8081 14.0053 21.6083 14.3145 22.3549C14.6238 23.1016 15.0771 23.78 15.6485 24.3514C16.22 24.9228 16.8984 25.3761 17.645 25.6854C18.3916 25.9946 19.1918 26.1538 20 26.1538C20.8081 26.1538 21.6083 25.9946 22.3549 25.6854C23.1016 25.3761 23.78 24.9228 24.3514 24.3514C24.9228 23.78 25.3761 23.1016 25.6854 22.3549C25.9946 21.6083 26.1538 20.8081 26.1538 20L20 20L13.8461 20Z" fill="#6935F5"/>
<defs>
<filter id="filter0_d_85_455" x="0.922926" y="17.5385" width="38.1539" height="22.7693" filterUnits="userSpaceOnUse" color-interpolation-filters="sRGB">
<feFlood flood-opacity="0" result="BackgroundImageFix"/>
<feColorMatrix in="SourceAlpha" type="matrix" values="0 0 0 0 0 0 0 0 0 0 0 0 0 0 0 0 0 0 127 0" result="hardAlpha"/>
<feOffset dy="1.23077"/>
<feGaussianBlur stdDeviation="1.84615"/>
<feComposite in2="hardAlpha" operator="out"/>
<feColorMatrix type="matrix" values="0 0 0 0 0.415686 0 0 0 0 0.215686 0 0 0 0 0.960784 0 0 0 0.2 0"/>
<feBlend mode="normal" in2="BackgroundImageFix" result="effect1_dropShadow_85_455"/>
<feBlend mode="normal" in="SourceGraphic" in2="effect1_dropShadow_85_455" result="shape"/>
</filter>
</defs>
</svg>
