<svg width="40" height="41" viewBox="0 0 40 41" fill="none" xmlns="http://www.w3.org/2000/svg">
<circle cx="20" cy="20" r="20" fill="#E4E0FD"/>
<circle cx="20.0001" cy="20" r="9.23077" fill="#F9F9F9"/>
<path d="M8.92306 20C8.92306 13.8824 13.8824 8.92306 20 8.92306C26.1176 8.92306 31.0769 13.8824 31.0769 20C31.0769 26.1176 26.1176 31.0769 20 31.0769C13.8824 31.0769 8.92306 26.1176 8.92306 20ZM28.2844 20C28.2844 15.4246 24.5754 11.7155 20 11.7155C15.4246 11.7155 11.7155 15.4246 11.7155 20C11.7155 24.5754 15.4246 28.2844 20 28.2844C24.5754 28.2844 28.2844 24.5754 28.2844 20Z" fill="#6935F5"/>
<path d="M4.61529 20C4.61529 22.0204 5.01323 24.0209 5.78638 25.8875C6.55953 27.754 7.69275 29.45 9.12134 30.8786C10.5499 32.3072 12.2459 33.4404 14.1125 34.2136C15.979 34.9867 17.9796 35.3846 19.9999 35.3846C22.0202 35.3846 24.0208 34.9867 25.8873 34.2136C27.7539 33.4404 29.4499 32.3072 30.8785 30.8786C32.3071 29.45 33.4403 27.754 34.2134 25.8875C34.9866 24.0209 35.3845 22.0204 35.3845 20L31.1601 20C31.1601 21.4656 30.8714 22.9168 30.3105 24.2708C29.7497 25.6248 28.9276 26.8551 27.8913 27.8914C26.855 28.9278 25.6247 29.7498 24.2707 30.3107C22.9167 30.8715 21.4655 31.1602 19.9999 31.1602C18.5343 31.1602 17.0831 30.8715 15.7291 30.3107C14.3751 29.7498 13.1448 28.9278 12.1085 27.8914C11.0722 26.8551 10.2501 25.6248 9.68928 24.2708C9.12843 22.9168 8.83976 21.4656 8.83976 20H4.61529Z" fill="#D9D9D9"/>
<g filter="url(#filter0_d_79_413)">
<path d="M4.61529 20C4.61529 22.0204 5.01323 24.0209 5.78638 25.8875C6.55953 27.754 7.69275 29.45 9.12134 30.8786C10.5499 32.3072 12.2459 33.4404 14.1125 34.2136C15.979 34.9867 17.9796 35.3846 19.9999 35.3846C22.0202 35.3846 24.0208 34.9867 25.8873 34.2136C27.7539 33.4404 29.4499 32.3072 30.8785 30.8786C32.3071 29.45 33.4403 27.754 34.2134 25.8875C34.9866 24.0209 35.3845 22.0204 35.3845 20L28.1569 20C28.157 21.0712 27.946 22.1319 27.536 23.1216C27.1261 24.1113 26.5253 25.0105 25.7678 25.7679C25.0104 26.5254 24.1111 27.1262 23.1215 27.5362C22.1318 27.9461 21.0711 28.1571 19.9999 28.1571C18.9287 28.1571 17.868 27.9461 16.8783 27.5362C15.8887 27.1262 14.9895 26.5254 14.232 25.7679C13.4746 25.0105 12.8737 24.1113 12.4638 23.1216C12.0539 22.1319 11.8429 21.0712 11.8429 20H4.61529Z" fill="url(#paint0_linear_79_413)" shape-rendering="crispEdges"/>
</g>
<path d="M13.8461 20C13.8461 20.8082 14.0053 21.6084 14.3145 22.355C14.6238 23.1016 15.0771 23.78 15.6485 24.3515C16.22 24.9229 16.8984 25.3762 17.645 25.6854C18.3916 25.9947 19.1918 26.1539 20 26.1539C20.8081 26.1539 21.6083 25.9947 22.3549 25.6854C23.1016 25.3762 23.78 24.9229 24.3514 24.3514C24.9228 23.78 25.3761 23.1016 25.6854 22.355C25.9946 21.6084 26.1538 20.8082 26.1538 20L20 20L13.8461 20Z" fill="#FAFAFA"/>
<defs>
<filter id="filter0_d_79_413" x="0.922926" y="17.5385" width="38.1539" height="22.7693" filterUnits="userSpaceOnUse" color-interpolation-filters="sRGB">
<feFlood flood-opacity="0" result="BackgroundImageFix"/>
<feColorMatrix in="SourceAlpha" type="matrix" values="0 0 0 0 0 0 0 0 0 0 0 0 0 0 0 0 0 0 127 0" result="hardAlpha"/>
<feOffset dy="1.23077"/>
<feGaussianBlur stdDeviation="1.84615"/>
<feComposite in2="hardAlpha" operator="out"/>
<feColorMatrix type="matrix" values="0 0 0 0 0.415686 0 0 0 0 0.215686 0 0 0 0 0.960784 0 0 0 0.2 0"/>
<feBlend mode="normal" in2="BackgroundImageFix" result="effect1_dropShadow_79_413"/>
<feBlend mode="normal" in="SourceGraphic" in2="effect1_dropShadow_79_413" result="shape"/>
</filter>
<linearGradient id="paint0_linear_79_413" x1="19.9999" y1="4.61541" x2="19.9999" y2="35.3846" gradientUnits="userSpaceOnUse">
<stop stop-color="#FAFAFA" stop-opacity="0.4"/>
<stop offset="1" stop-color="#FAFAFA"/>
</linearGradient>
</defs>
</svg>
