<svg width="420" height="158" viewBox="0 0 420 158" fill="none" xmlns="http://www.w3.org/2000/svg">
<path d="M5.62992 154.205C5.2393 154.205 4.88969 154.148 4.58109 154.035C4.2725 153.926 4.01078 153.768 3.79594 153.561C3.58109 153.354 3.41313 153.109 3.29203 152.828C3.17094 152.547 3.10063 152.238 3.08109 151.902L3.07523 151.832H4.37602V151.879C4.39555 152.094 4.45414 152.289 4.5518 152.465C4.64945 152.637 4.78617 152.773 4.96195 152.875C5.14164 152.977 5.36234 153.027 5.62406 153.027C6.05766 153.027 6.38773 152.902 6.6143 152.652C6.84086 152.398 6.95414 152.029 6.95414 151.545V145.545H8.2725V151.557C8.2725 152.111 8.16703 152.586 7.95609 152.98C7.74906 153.375 7.44828 153.678 7.05375 153.889C6.66313 154.1 6.18852 154.205 5.62992 154.205ZM11.478 154.105C11.0757 154.105 10.7144 154.029 10.3941 153.877C10.0777 153.721 9.82766 153.5 9.64406 153.215C9.46047 152.93 9.36867 152.596 9.36867 152.213V152.201C9.36867 151.818 9.46047 151.492 9.64406 151.223C9.83156 150.953 10.1011 150.742 10.4527 150.59C10.8081 150.434 11.2378 150.34 11.7417 150.309L14.0913 150.168V151.064L11.9175 151.205C11.48 151.232 11.1577 151.326 10.9507 151.486C10.7437 151.643 10.6402 151.863 10.6402 152.148V152.16C10.6402 152.449 10.7515 152.678 10.9741 152.846C11.1968 153.01 11.478 153.092 11.8179 153.092C12.1343 153.092 12.4155 153.029 12.6616 152.904C12.9116 152.775 13.107 152.604 13.2476 152.389C13.3882 152.17 13.4585 151.924 13.4585 151.65V149.646C13.4585 149.295 13.3491 149.027 13.1304 148.844C12.9155 148.656 12.5952 148.562 12.1695 148.562C11.814 148.562 11.523 148.625 11.2964 148.75C11.0737 148.875 10.9253 149.051 10.8511 149.277L10.8394 149.295H9.61477L9.62062 149.254C9.67141 148.902 9.81008 148.598 10.0366 148.34C10.2671 148.078 10.5679 147.875 10.939 147.73C11.314 147.586 11.7417 147.514 12.2222 147.514C12.7573 147.514 13.2105 147.6 13.5816 147.771C13.9566 147.939 14.2398 148.184 14.4312 148.504C14.6265 148.82 14.7241 149.201 14.7241 149.646V154H13.4585V153.098H13.3648C13.2398 153.312 13.0835 153.496 12.896 153.648C12.7085 153.797 12.4956 153.91 12.2573 153.988C12.0191 154.066 11.7593 154.105 11.478 154.105ZM16.0371 154V147.637H17.3086V148.598H17.4082C17.5645 148.258 17.7949 147.992 18.0996 147.801C18.4043 147.609 18.7891 147.514 19.2539 147.514C19.9688 147.514 20.5156 147.719 20.8945 148.129C21.2734 148.539 21.4629 149.123 21.4629 149.881V154H20.1855V150.18C20.1855 149.648 20.0742 149.254 19.8516 148.996C19.6328 148.734 19.2891 148.604 18.8203 148.604C18.5117 148.604 18.2441 148.672 18.0176 148.809C17.791 148.941 17.6152 149.133 17.4902 149.383C17.3691 149.629 17.3086 149.924 17.3086 150.268V154H16.0371ZM27.6045 154V146.898H27.5107L25.3838 148.416V147.127L27.6103 145.545H28.9228V154H27.6045Z" fill="#9FA1AC"/>
<path d="M101.026 154.205C100.636 154.205 100.286 154.148 99.9776 154.035C99.669 153.926 99.4073 153.768 99.1924 153.561C98.9776 153.354 98.8096 153.109 98.6885 152.828C98.5674 152.547 98.4971 152.238 98.4776 151.902L98.4717 151.832H99.7725V151.879C99.792 152.094 99.8506 152.289 99.9483 152.465C100.046 152.637 100.183 152.773 100.358 152.875C100.538 152.977 100.759 153.027 101.021 153.027C101.454 153.027 101.784 152.902 102.011 152.652C102.237 152.398 102.351 152.029 102.351 151.545V145.545H103.669V151.557C103.669 152.111 103.564 152.586 103.353 152.98C103.146 153.375 102.845 153.678 102.45 153.889C102.06 154.1 101.585 154.205 101.026 154.205ZM106.875 154.105C106.472 154.105 106.111 154.029 105.791 153.877C105.474 153.721 105.224 153.5 105.041 153.215C104.857 152.93 104.765 152.596 104.765 152.213V152.201C104.765 151.818 104.857 151.492 105.041 151.223C105.228 150.953 105.498 150.742 105.849 150.59C106.205 150.434 106.634 150.34 107.138 150.309L109.488 150.168V151.064L107.314 151.205C106.876 151.232 106.554 151.326 106.347 151.486C106.14 151.643 106.037 151.863 106.037 152.148V152.16C106.037 152.449 106.148 152.678 106.371 152.846C106.593 153.01 106.875 153.092 107.214 153.092C107.531 153.092 107.812 153.029 108.058 152.904C108.308 152.775 108.503 152.604 108.644 152.389C108.785 152.17 108.855 151.924 108.855 151.65V149.646C108.855 149.295 108.746 149.027 108.527 148.844C108.312 148.656 107.992 148.562 107.566 148.562C107.21 148.562 106.919 148.625 106.693 148.75C106.47 148.875 106.322 149.051 106.248 149.277L106.236 149.295H105.011L105.017 149.254C105.068 148.902 105.207 148.598 105.433 148.34C105.664 148.078 105.964 147.875 106.335 147.73C106.71 147.586 107.138 147.514 107.619 147.514C108.154 147.514 108.607 147.6 108.978 147.771C109.353 147.939 109.636 148.184 109.828 148.504C110.023 148.82 110.121 149.201 110.121 149.646V154H108.855V153.098H108.761C108.636 153.312 108.48 153.496 108.292 153.648C108.105 153.797 107.892 153.91 107.654 153.988C107.416 154.066 107.156 154.105 106.875 154.105ZM111.434 154V147.637H112.705V148.598H112.805C112.961 148.258 113.191 147.992 113.496 147.801C113.801 147.609 114.186 147.514 114.65 147.514C115.365 147.514 115.912 147.719 116.291 148.129C116.67 148.539 116.859 149.123 116.859 149.881V154H115.582V150.18C115.582 149.648 115.471 149.254 115.248 148.996C115.029 148.734 114.686 148.604 114.217 148.604C113.908 148.604 113.641 148.672 113.414 148.809C113.188 148.941 113.012 149.133 112.887 149.383C112.766 149.629 112.705 149.924 112.705 150.268V154H111.434ZM121.296 154L125.022 146.746V146.658H120.593V145.545H126.353V146.688L122.679 154H121.296Z" fill="#9FA1AC"/>
<path d="M196.409 154.205C196.018 154.205 195.669 154.148 195.36 154.035C195.052 153.926 194.79 153.768 194.575 153.561C194.36 153.354 194.192 153.109 194.071 152.828C193.95 152.547 193.88 152.238 193.86 151.902L193.854 151.832H195.155V151.879C195.175 152.094 195.233 152.289 195.331 152.465C195.429 152.637 195.565 152.773 195.741 152.875C195.921 152.977 196.141 153.027 196.403 153.027C196.837 153.027 197.167 152.902 197.393 152.652C197.62 152.398 197.733 152.029 197.733 151.545V145.545H199.052V151.557C199.052 152.111 198.946 152.586 198.735 152.98C198.528 153.375 198.227 153.678 197.833 153.889C197.442 154.1 196.968 154.205 196.409 154.205ZM202.257 154.105C201.855 154.105 201.493 154.029 201.173 153.877C200.857 153.721 200.607 153.5 200.423 153.215C200.24 152.93 200.148 152.596 200.148 152.213V152.201C200.148 151.818 200.24 151.492 200.423 151.223C200.611 150.953 200.88 150.742 201.232 150.59C201.587 150.434 202.017 150.34 202.521 150.309L204.87 150.168V151.064L202.697 151.205C202.259 151.232 201.937 151.326 201.73 151.486C201.523 151.643 201.419 151.863 201.419 152.148V152.16C201.419 152.449 201.531 152.678 201.753 152.846C201.976 153.01 202.257 153.092 202.597 153.092C202.913 153.092 203.195 153.029 203.441 152.904C203.691 152.775 203.886 152.604 204.027 152.389C204.167 152.17 204.238 151.924 204.238 151.65V149.646C204.238 149.295 204.128 149.027 203.909 148.844C203.695 148.656 203.374 148.562 202.949 148.562C202.593 148.562 202.302 148.625 202.075 148.75C201.853 148.875 201.704 149.051 201.63 149.277L201.618 149.295H200.394L200.4 149.254C200.45 148.902 200.589 148.598 200.816 148.34C201.046 148.078 201.347 147.875 201.718 147.73C202.093 147.586 202.521 147.514 203.001 147.514C203.536 147.514 203.99 147.6 204.361 147.771C204.736 147.939 205.019 148.184 205.21 148.504C205.406 148.82 205.503 149.201 205.503 149.646V154H204.238V153.098H204.144C204.019 153.312 203.863 153.496 203.675 153.648C203.488 153.797 203.275 153.91 203.036 153.988C202.798 154.066 202.538 154.105 202.257 154.105ZM206.816 154V147.637H208.088V148.598H208.187C208.344 148.258 208.574 147.992 208.879 147.801C209.183 147.609 209.568 147.514 210.033 147.514C210.748 147.514 211.295 147.719 211.674 148.129C212.053 148.539 212.242 149.123 212.242 149.881V154H210.965V150.18C210.965 149.648 210.853 149.254 210.631 148.996C210.412 148.734 210.068 148.604 209.599 148.604C209.291 148.604 209.023 148.672 208.797 148.809C208.57 148.941 208.394 149.133 208.269 149.383C208.148 149.629 208.088 149.924 208.088 150.268V154H206.816ZM218.384 154V146.898H218.29L216.163 148.416V147.127L218.389 145.545H219.702V154H218.384ZM225.497 154V152.324H221.372V151.205C221.595 150.822 221.821 150.438 222.052 150.051C222.286 149.664 222.521 149.277 222.755 148.891C222.993 148.504 223.232 148.123 223.47 147.748C223.708 147.369 223.946 146.996 224.185 146.629C224.423 146.258 224.657 145.896 224.888 145.545H226.769V151.205H227.935V152.324H226.769V154H225.497ZM222.638 151.229H225.515V146.658H225.439C225.255 146.932 225.07 147.215 224.882 147.508C224.695 147.797 224.503 148.094 224.308 148.398C224.116 148.703 223.925 149.01 223.734 149.318C223.542 149.627 223.355 149.936 223.171 150.244C222.988 150.549 222.81 150.85 222.638 151.146V151.229Z" fill="#9FA1AC"/>
<path d="M290.661 154.205C290.27 154.205 289.921 154.148 289.612 154.035C289.304 153.926 289.042 153.768 288.827 153.561C288.612 153.354 288.444 153.109 288.323 152.828C288.202 152.547 288.132 152.238 288.112 151.902L288.106 151.832H289.407V151.879C289.427 152.094 289.485 152.289 289.583 152.465C289.68 152.637 289.817 152.773 289.993 152.875C290.173 152.977 290.393 153.027 290.655 153.027C291.089 153.027 291.419 152.902 291.645 152.652C291.872 152.398 291.985 152.029 291.985 151.545V145.545H293.304V151.557C293.304 152.111 293.198 152.586 292.987 152.98C292.78 153.375 292.479 153.678 292.085 153.889C291.694 154.1 291.22 154.205 290.661 154.205ZM296.509 154.105C296.107 154.105 295.745 154.029 295.425 153.877C295.109 153.721 294.859 153.5 294.675 153.215C294.491 152.93 294.4 152.596 294.4 152.213V152.201C294.4 151.818 294.491 151.492 294.675 151.223C294.863 150.953 295.132 150.742 295.484 150.59C295.839 150.434 296.269 150.34 296.773 150.309L299.122 150.168V151.064L296.949 151.205C296.511 151.232 296.189 151.326 295.982 151.486C295.775 151.643 295.671 151.863 295.671 152.148V152.16C295.671 152.449 295.783 152.678 296.005 152.846C296.228 153.01 296.509 153.092 296.849 153.092C297.165 153.092 297.447 153.029 297.693 152.904C297.943 152.775 298.138 152.604 298.279 152.389C298.419 152.17 298.49 151.924 298.49 151.65V149.646C298.49 149.295 298.38 149.027 298.161 148.844C297.947 148.656 297.626 148.562 297.2 148.562C296.845 148.562 296.554 148.625 296.327 148.75C296.105 148.875 295.956 149.051 295.882 149.277L295.87 149.295H294.646L294.652 149.254C294.702 148.902 294.841 148.598 295.068 148.34C295.298 148.078 295.599 147.875 295.97 147.73C296.345 147.586 296.773 147.514 297.253 147.514C297.788 147.514 298.241 147.6 298.613 147.771C298.988 147.939 299.271 148.184 299.462 148.504C299.658 148.82 299.755 149.201 299.755 149.646V154H298.49V153.098H298.396C298.271 153.312 298.115 153.496 297.927 153.648C297.74 153.797 297.527 153.91 297.288 153.988C297.05 154.066 296.79 154.105 296.509 154.105ZM301.068 154V147.637H302.34V148.598H302.439C302.595 148.258 302.826 147.992 303.131 147.801C303.435 147.609 303.82 147.514 304.285 147.514C305 147.514 305.547 147.719 305.926 148.129C306.304 148.539 306.494 149.123 306.494 149.881V154H305.217V150.18C305.217 149.648 305.105 149.254 304.883 148.996C304.664 148.734 304.32 148.604 303.851 148.604C303.543 148.604 303.275 148.672 303.049 148.809C302.822 148.941 302.646 149.133 302.521 149.383C302.4 149.629 302.34 149.924 302.34 150.268V154H301.068ZM310.567 154V153.104L313.38 150.162C313.755 149.771 314.046 149.451 314.253 149.201C314.46 148.947 314.604 148.721 314.686 148.521C314.772 148.322 314.815 148.107 314.815 147.877V147.865C314.815 147.588 314.755 147.342 314.634 147.127C314.516 146.908 314.346 146.738 314.124 146.617C313.901 146.492 313.635 146.43 313.327 146.43C313.014 146.43 312.739 146.494 312.501 146.623C312.262 146.752 312.077 146.932 311.944 147.162C311.811 147.393 311.745 147.662 311.745 147.971V147.994L310.503 147.988L310.497 147.977C310.501 147.461 310.626 147.006 310.872 146.611C311.118 146.213 311.46 145.902 311.897 145.68C312.335 145.453 312.837 145.34 313.403 145.34C313.926 145.34 314.393 145.443 314.803 145.65C315.218 145.854 315.544 146.137 315.782 146.5C316.02 146.859 316.139 147.271 316.139 147.736V147.754C316.139 148.074 316.081 148.385 315.964 148.686C315.846 148.986 315.643 149.316 315.354 149.676C315.069 150.035 314.671 150.469 314.159 150.977L312.026 153.104L312.366 152.512V153.104L312.032 152.875H316.274V154H310.567ZM319.573 154V146.898H319.48L317.353 148.416V147.127L319.579 145.545H320.892V154H319.573Z" fill="#9FA1AC"/>
<path d="M386.514 154.205C386.124 154.205 385.774 154.148 385.466 154.035C385.157 153.926 384.895 153.768 384.68 153.561C384.466 153.354 384.298 153.109 384.177 152.828C384.055 152.547 383.985 152.238 383.966 151.902L383.96 151.832H385.261V151.879C385.28 152.094 385.339 152.289 385.436 152.465C385.534 152.637 385.671 152.773 385.846 152.875C386.026 152.977 386.247 153.027 386.509 153.027C386.942 153.027 387.272 152.902 387.499 152.652C387.725 152.398 387.839 152.029 387.839 151.545V145.545H389.157V151.557C389.157 152.111 389.052 152.586 388.841 152.98C388.634 153.375 388.333 153.678 387.938 153.889C387.548 154.1 387.073 154.205 386.514 154.205ZM392.363 154.105C391.96 154.105 391.599 154.029 391.279 153.877C390.962 153.721 390.712 153.5 390.529 153.215C390.345 152.93 390.253 152.596 390.253 152.213V152.201C390.253 151.818 390.345 151.492 390.529 151.223C390.716 150.953 390.986 150.742 391.337 150.59C391.693 150.434 392.122 150.34 392.626 150.309L394.976 150.168V151.064L392.802 151.205C392.365 151.232 392.042 151.326 391.835 151.486C391.628 151.643 391.525 151.863 391.525 152.148V152.16C391.525 152.449 391.636 152.678 391.859 152.846C392.081 153.01 392.363 153.092 392.702 153.092C393.019 153.092 393.3 153.029 393.546 152.904C393.796 152.775 393.991 152.604 394.132 152.389C394.273 152.17 394.343 151.924 394.343 151.65V149.646C394.343 149.295 394.234 149.027 394.015 148.844C393.8 148.656 393.48 148.562 393.054 148.562C392.699 148.562 392.408 148.625 392.181 148.75C391.958 148.875 391.81 149.051 391.736 149.277L391.724 149.295H390.499L390.505 149.254C390.556 148.902 390.695 148.598 390.921 148.34C391.152 148.078 391.452 147.875 391.824 147.73C392.199 147.586 392.626 147.514 393.107 147.514C393.642 147.514 394.095 147.6 394.466 147.771C394.841 147.939 395.124 148.184 395.316 148.504C395.511 148.82 395.609 149.201 395.609 149.646V154H394.343V153.098H394.249C394.124 153.312 393.968 153.496 393.781 153.648C393.593 153.797 393.38 153.91 393.142 153.988C392.904 154.066 392.644 154.105 392.363 154.105ZM396.922 154V147.637H398.193V148.598H398.293C398.449 148.258 398.679 147.992 398.984 147.801C399.289 147.609 399.674 147.514 400.138 147.514C400.853 147.514 401.4 147.719 401.779 148.129C402.158 148.539 402.347 149.123 402.347 149.881V154H401.07V150.18C401.07 149.648 400.959 149.254 400.736 148.996C400.517 148.734 400.174 148.604 399.705 148.604C399.396 148.604 399.129 148.672 398.902 148.809C398.676 148.941 398.5 149.133 398.375 149.383C398.254 149.629 398.193 149.924 398.193 150.268V154H396.922ZM409.403 154.158C408.801 154.158 408.276 154.057 407.827 153.854C407.378 153.646 407.022 153.363 406.76 153.004C406.499 152.645 406.346 152.232 406.303 151.768L406.298 151.691H407.563L407.569 151.756C407.596 152.01 407.688 152.234 407.844 152.43C408.001 152.625 408.212 152.779 408.477 152.893C408.747 153.002 409.055 153.057 409.403 153.057C409.751 153.057 410.053 152.998 410.311 152.881C410.569 152.76 410.77 152.594 410.915 152.383C411.059 152.168 411.132 151.924 411.132 151.65V151.639C411.132 151.162 410.969 150.797 410.645 150.543C410.321 150.285 409.878 150.156 409.315 150.156H408.29V149.125H409.274C409.598 149.125 409.882 149.068 410.124 148.955C410.366 148.838 410.555 148.678 410.692 148.475C410.829 148.271 410.897 148.039 410.897 147.777V147.766C410.897 147.492 410.839 147.26 410.721 147.068C410.604 146.873 410.432 146.725 410.206 146.623C409.983 146.518 409.712 146.465 409.391 146.465C409.079 146.465 408.801 146.518 408.559 146.623C408.317 146.729 408.124 146.879 407.979 147.074C407.835 147.266 407.749 147.496 407.721 147.766L407.716 147.818H406.473L406.479 147.76C406.526 147.279 406.675 146.863 406.925 146.512C407.178 146.156 407.514 145.881 407.932 145.686C408.354 145.486 408.841 145.387 409.391 145.387C409.954 145.387 410.444 145.48 410.862 145.668C411.28 145.855 411.604 146.115 411.835 146.447C412.065 146.775 412.18 147.158 412.18 147.596V147.607C412.18 147.959 412.102 148.27 411.946 148.539C411.794 148.805 411.583 149.027 411.313 149.207C411.048 149.383 410.743 149.506 410.399 149.576V149.605C411.02 149.656 411.52 149.861 411.899 150.221C412.278 150.58 412.468 151.057 412.468 151.65V151.662C412.468 152.146 412.337 152.578 412.075 152.957C411.813 153.332 411.452 153.627 410.991 153.842C410.534 154.053 410.005 154.158 409.403 154.158ZM415.72 154V146.898H415.626L413.499 148.416V147.127L415.726 145.545H417.038V154H415.72Z" fill="#9FA1AC"/>
<line x1="17.75" y1="13" x2="17.75" y2="135" stroke="#DDDDE2" stroke-width="1.5" stroke-dasharray="2 4"/>
<line x1="65.75" y1="13" x2="65.75" y2="135" stroke="#DDDDE2" stroke-width="1.5" stroke-dasharray="2 4"/>
<line x1="113.75" y1="13" x2="113.75" y2="135" stroke="#DDDDE2" stroke-width="1.5" stroke-dasharray="2 4"/>
<line x1="161.75" y1="13" x2="161.75" y2="135" stroke="#DDDDE2" stroke-width="1.5" stroke-dasharray="2 4"/>
<line x1="209.75" y1="13" x2="209.75" y2="135" stroke="#DDDDE2" stroke-width="1.5" stroke-dasharray="2 4"/>
<line x1="257.75" y1="13" x2="257.75" y2="135" stroke="#DDDDE2" stroke-width="1.5" stroke-dasharray="2 4"/>
<line x1="305.75" y1="13" x2="305.75" y2="135" stroke="#DDDDE2" stroke-width="1.5" stroke-dasharray="2 4"/>
<line x1="353.75" y1="13" x2="353.75" y2="135" stroke="#DDDDE2" stroke-width="1.5" stroke-dasharray="2 4"/>
<line x1="353.75" y1="13" x2="353.75" y2="135" stroke="#DDDDE2" stroke-width="1.5" stroke-dasharray="2 4"/>
<line x1="401.75" y1="14" x2="401.75" y2="136" stroke="#DDDDE2" stroke-width="1.5" stroke-dasharray="2 4"/>
<rect x="17.5" y="56.5" width="383" height="78" fill="url(#paint0_linear_20_2440)" stroke="#FAFAFA"/>
<path d="M17 45L65.3145 33L110.609 45L159.427 57L203.212 33L302.861 30L351.679 57L401 33" stroke="#6935F5"/>
<path d="M18 58V46.2182L65.5 33.9455C81.8333 38.0364 123.5 48.5745 159.5 58L203 33.9455L302.5 31C303.667 31 313.2 36.4 352 58L400.5 34V58H352H159.5H18Z" fill="url(#paint1_linear_20_2440)"/>
<defs>
<linearGradient id="paint0_linear_20_2440" x1="209" y1="56" x2="209" y2="135" gradientUnits="userSpaceOnUse">
<stop stop-color="#EBE8FE"/>
<stop offset="1" stop-color="white" stop-opacity="0.09"/>
</linearGradient>
<linearGradient id="paint1_linear_20_2440" x1="18" y1="44.5" x2="400.5" y2="44.5" gradientUnits="userSpaceOnUse">
<stop offset="0.9999" stop-color="#EAE7FD"/>
<stop offset="1" stop-color="white"/>
</linearGradient>
</defs>
</svg>
