<svg width="93" height="27" viewBox="0 0 93 27" fill="none" xmlns="http://www.w3.org/2000/svg">
<g clip-path="url(#clip0_20_827)">
<path d="M0 9H9L18 18H0V9Z" fill="url(#paint0_linear_20_827)"/>
</g>
<g clip-path="url(#clip1_20_827)">
<path d="M18 0V9H9L0 0H18Z" fill="#68DBFE"/>
</g>
<path d="M0 18H9V27L0 18Z" fill="url(#paint1_linear_20_827)"/>
<path d="M36.4141 20V8.72656H43.4531V10.2422H38.1641V13.8047H43.0078V15.2812H38.1641V20H36.4141ZM45.5312 20V11.5156H47.2266V12.7969H47.3594C47.5104 12.3438 47.776 11.9922 48.1562 11.7422C48.5417 11.4922 49.0156 11.3672 49.5781 11.3672C49.7188 11.3672 49.8568 11.375 49.9922 11.3906C50.1276 11.4062 50.237 11.4245 50.3203 11.4453V13.0078C50.1693 12.9766 50.0182 12.9531 49.8672 12.9375C49.7214 12.9219 49.5677 12.9141 49.4062 12.9141C48.974 12.9141 48.5938 12.9974 48.2656 13.1641C47.9427 13.3307 47.6875 13.5651 47.5 13.8672C47.3177 14.1641 47.2266 14.5182 47.2266 14.9297V20H45.5312ZM54.2188 20.1406C53.6823 20.1406 53.2005 20.0391 52.7734 19.8359C52.3516 19.6276 52.0182 19.3333 51.7734 18.9531C51.5286 18.5729 51.4062 18.1276 51.4062 17.6172V17.6016C51.4062 17.0911 51.5286 16.6562 51.7734 16.2969C52.0234 15.9375 52.3828 15.6562 52.8516 15.4531C53.3255 15.2448 53.8984 15.1198 54.5703 15.0781L57.7031 14.8906V16.0859L54.8047 16.2734C54.2214 16.3099 53.7917 16.4349 53.5156 16.6484C53.2396 16.8568 53.1016 17.151 53.1016 17.5312V17.5469C53.1016 17.9323 53.25 18.237 53.5469 18.4609C53.8438 18.6797 54.2188 18.7891 54.6719 18.7891C55.0938 18.7891 55.4688 18.7057 55.7969 18.5391C56.1302 18.3672 56.3906 18.138 56.5781 17.8516C56.7656 17.5599 56.8594 17.2318 56.8594 16.8672V14.1953C56.8594 13.7266 56.7135 13.3698 56.4219 13.125C56.1354 12.875 55.7083 12.75 55.1406 12.75C54.6667 12.75 54.2786 12.8333 53.9766 13C53.6797 13.1667 53.4818 13.401 53.3828 13.7031L53.3672 13.7266H51.7344L51.7422 13.6719C51.8099 13.2031 51.9948 12.7969 52.2969 12.4531C52.6042 12.1042 53.0052 11.8333 53.5 11.6406C54 11.4479 54.5703 11.3516 55.2109 11.3516C55.9245 11.3516 56.5286 11.4661 57.0234 11.6953C57.5234 11.9193 57.901 12.2448 58.1562 12.6719C58.4167 13.0938 58.5469 13.6016 58.5469 14.1953V20H56.8594V18.7969H56.7344C56.5677 19.0833 56.3594 19.3281 56.1094 19.5312C55.8594 19.7292 55.5755 19.8802 55.2578 19.9844C54.9401 20.0885 54.5938 20.1406 54.2188 20.1406ZM60.9375 20V11.5156H62.6328V12.8203H62.7656C62.9531 12.3516 63.2448 11.9896 63.6406 11.7344C64.0417 11.4792 64.5208 11.3516 65.0781 11.3516C65.4635 11.3516 65.8099 11.4141 66.1172 11.5391C66.4245 11.6641 66.6875 11.8411 66.9062 12.0703C67.1302 12.2943 67.3047 12.5599 67.4297 12.8672H67.5625C67.7031 12.5599 67.901 12.2943 68.1562 12.0703C68.4115 11.8411 68.7083 11.6641 69.0469 11.5391C69.3906 11.4141 69.7552 11.3516 70.1406 11.3516C70.7135 11.3516 71.2031 11.4635 71.6094 11.6875C72.0156 11.9062 72.3255 12.224 72.5391 12.6406C72.7526 13.0573 72.8594 13.5599 72.8594 14.1484V20H71.1641V14.5547C71.1641 14.1641 71.1042 13.8411 70.9844 13.5859C70.8646 13.3255 70.6823 13.1302 70.4375 13C70.1979 12.8698 69.8958 12.8047 69.5312 12.8047C69.1719 12.8047 68.8568 12.888 68.5859 13.0547C68.3203 13.2161 68.112 13.4349 67.9609 13.7109C67.8151 13.9818 67.7422 14.2891 67.7422 14.6328V20H66.0469V14.3828C66.0469 14.0599 65.9792 13.7812 65.8438 13.5469C65.7135 13.3073 65.526 13.125 65.2812 13C65.0365 12.8698 64.7474 12.8047 64.4141 12.8047C64.0755 12.8047 63.7708 12.8932 63.5 13.0703C63.2344 13.2474 63.0234 13.487 62.8672 13.7891C62.7109 14.0859 62.6328 14.4193 62.6328 14.7891V20H60.9375ZM78.7969 20.1641C77.9688 20.1641 77.2578 19.987 76.6641 19.6328C76.0703 19.2734 75.612 18.7656 75.2891 18.1094C74.9714 17.4531 74.8125 16.6771 74.8125 15.7812V15.7734C74.8125 14.888 74.9714 14.1146 75.2891 13.4531C75.612 12.7917 76.0651 12.276 76.6484 11.9062C77.237 11.5365 77.9245 11.3516 78.7109 11.3516C79.5026 11.3516 80.1823 11.5286 80.75 11.8828C81.3229 12.237 81.763 12.7344 82.0703 13.375C82.3776 14.0104 82.5312 14.7552 82.5312 15.6094V16.2031H75.6719V14.9922H81.6875L80.875 16.1172V15.4375C80.875 14.8333 80.7812 14.3333 80.5938 13.9375C80.4115 13.5365 80.1589 13.237 79.8359 13.0391C79.513 12.8411 79.1406 12.7422 78.7188 12.7422C78.2969 12.7422 77.9193 12.8464 77.5859 13.0547C77.2578 13.2578 76.9974 13.5599 76.8047 13.9609C76.6172 14.362 76.5234 14.8542 76.5234 15.4375V16.1172C76.5234 16.6745 76.6172 17.151 76.8047 17.5469C76.9922 17.9427 77.2578 18.2448 77.6016 18.4531C77.9505 18.6615 78.362 18.7656 78.8359 18.7656C79.2005 18.7656 79.513 18.7161 79.7734 18.6172C80.0391 18.513 80.2552 18.3854 80.4219 18.2344C80.5938 18.0833 80.7109 17.9349 80.7734 17.7891L80.8047 17.7266H82.4453L82.4297 17.7969C82.3568 18.0781 82.2292 18.3594 82.0469 18.6406C81.8646 18.9167 81.6224 19.1693 81.3203 19.3984C81.0234 19.6276 80.6641 19.8125 80.2422 19.9531C79.8255 20.0938 79.3438 20.1641 78.7969 20.1641ZM84.5469 20V11.5156H86.2422V12.7969H86.375C86.526 12.3438 86.7917 11.9922 87.1719 11.7422C87.5573 11.4922 88.0312 11.3672 88.5938 11.3672C88.7344 11.3672 88.8724 11.375 89.0078 11.3906C89.1432 11.4062 89.2526 11.4245 89.3359 11.4453V13.0078C89.1849 12.9766 89.0339 12.9531 88.8828 12.9375C88.737 12.9219 88.5833 12.9141 88.4219 12.9141C87.9896 12.9141 87.6094 12.9974 87.2812 13.1641C86.9583 13.3307 86.7031 13.5651 86.5156 13.8672C86.3333 14.1641 86.2422 14.5182 86.2422 14.9297V20H84.5469Z" fill="#FAFAFA"/>
<defs>
<linearGradient id="paint0_linear_20_827" x1="8.95522" y1="9" x2="8.97761" y2="18.0002" gradientUnits="userSpaceOnUse">
<stop stop-color="#00AAFF"/>
<stop offset="1" stop-color="#0099FF"/>
</linearGradient>
<linearGradient id="paint1_linear_20_827" x1="4.47761" y1="18" x2="4.52239" y2="27" gradientUnits="userSpaceOnUse">
<stop stop-color="#0033FF"/>
<stop offset="1" stop-color="#0055FF"/>
</linearGradient>
<clipPath id="clip0_20_827">
<rect width="18" height="9" fill="white" transform="translate(0 9)"/>
</clipPath>
<clipPath id="clip1_20_827">
<rect width="18" height="9" fill="white"/>
</clipPath>
</defs>
</svg>
