<svg width="40" height="40" viewBox="0 0 40 40" fill="none" xmlns="http://www.w3.org/2000/svg">
<path d="M27.798 17.7899L21.4213 19.6007C21.2608 19.6463 21.1152 19.7331 20.9992 19.8523C20.8831 19.9715 20.8006 20.119 20.76 20.2799L20.2684 22.2373C20.2278 22.3982 20.1454 22.5457 20.0293 22.6649C19.9132 22.7842 19.7676 22.871 19.6071 22.9166L13.4953 24.647C13.3346 24.6928 13.1889 24.7798 13.0728 24.8993C12.9567 25.0188 12.8744 25.1666 12.834 25.3278L12.0046 28.6043C11.9979 28.6312 11.9985 28.6593 12.0063 28.6859C12.014 28.7125 12.0287 28.7366 12.0488 28.7558C12.0689 28.775 12.0937 28.7885 12.1207 28.7952C12.1478 28.8018 12.1761 28.8012 12.2029 28.7934L18.5779 26.9826C18.7384 26.937 18.884 26.8502 19.0001 26.731C19.1162 26.6118 19.1986 26.4643 19.2392 26.3034L19.7308 24.3507C19.7714 24.1898 19.8539 24.0423 19.97 23.9231C20.086 23.8039 20.2316 23.7171 20.3921 23.6715L26.5039 21.9379C26.6646 21.8921 26.8103 21.8051 26.9264 21.6856C27.0425 21.5661 27.1249 21.4183 27.1652 21.2571L27.9946 17.9821C28.0019 17.9552 28.0018 17.9269 27.9944 17.9C27.987 17.8731 27.9726 17.8486 27.9526 17.8291C27.9326 17.8096 27.9078 17.7956 27.8806 17.7887C27.8535 17.7819 27.8249 17.7822 27.798 17.7899Z" fill="#FAFAFA"/>
<path d="M27.798 11.2056L21.4213 13.0227C21.2608 13.0683 21.1152 13.1551 20.9992 13.2744C20.8831 13.3936 20.8006 13.5411 20.76 13.702L20.2684 15.6546C20.2278 15.8155 20.1454 15.963 20.0293 16.0823C19.9132 16.2015 19.7676 16.2883 19.6071 16.3339L13.4953 18.069C13.3346 18.1148 13.1889 18.2018 13.0728 18.3213C12.9567 18.4409 12.8744 18.5887 12.834 18.7499L12.0046 22.0264C11.9979 22.0532 11.9985 22.0814 12.0063 22.108C12.014 22.1346 12.0287 22.1587 12.0488 22.1778C12.0689 22.197 12.0937 22.2106 12.1207 22.2172C12.1478 22.2238 12.1761 22.2232 12.2029 22.2155L18.5779 20.4047C18.7384 20.359 18.884 20.2723 19.0001 20.153C19.1162 20.0338 19.1986 19.8863 19.2392 19.7254L19.7308 17.7728C19.7714 17.6118 19.8539 17.4644 19.97 17.3451C20.086 17.2259 20.2316 17.1391 20.3921 17.0935L26.5039 15.3599C26.6663 15.3143 26.8135 15.2267 26.9306 15.106C27.0476 14.9852 27.1302 14.8357 27.17 14.6728L27.9946 11.3963C28.0015 11.3695 28.0012 11.3413 27.9936 11.3147C27.9861 11.288 27.9717 11.2638 27.9517 11.2445C27.9318 11.2252 27.9071 11.2114 27.8801 11.2046C27.8531 11.1978 27.8248 11.1981 27.798 11.2056Z" fill="#FAFAFA"/>
</svg>
