<svg width="24" height="24" viewBox="0 0 24 24" fill="none" xmlns="http://www.w3.org/2000/svg">
<g clip-path="url(#clip0_10_40)">
<rect width="24" height="24" rx="12" fill="#171E39"/>
<path d="M7.5 10.5C6.675 10.5 6 11.175 6 12C6 12.825 6.675 13.5 7.5 13.5C8.325 13.5 9 12.825 9 12C9 11.175 8.325 10.5 7.5 10.5Z" fill="#FAFAFA"/>
<path d="M17.5 10.5C16.675 10.5 16 11.175 16 12C16 12.825 16.675 13.5 17.5 13.5C18.325 13.5 19 12.825 19 12C19 11.175 18.325 10.5 17.5 10.5Z" fill="#FAFAFA"/>
<path d="M12.5 10.5C11.675 10.5 11 11.175 11 12C11 12.825 11.675 13.5 12.5 13.5C13.325 13.5 14 12.825 14 12C14 11.175 13.325 10.5 12.5 10.5Z" fill="#FAFAFA"/>
</g>
<defs>
<clipPath id="clip0_10_40">
<rect width="24" height="24" rx="12" fill="white"/>
</clipPath>
</defs>
</svg>
