<svg width="22" height="21" viewBox="0 0 22 21" fill="none" xmlns="http://www.w3.org/2000/svg">
<path d="M14.1429 3.4517C14.1429 4.98324 12.7358 9.32145 11 9.32145C9.26428 9.32145 7.85718 4.98324 7.85718 3.4517C8.38099 1.98811 9.26428 0.678589 11 0.678589C12.7358 0.678589 13.6191 1.98811 14.1429 3.4517Z" fill="#040823"/>
<path d="M7.85711 18.0105C7.85711 16.7343 9.26421 12.4643 11 12.4643C12.7357 12.4643 14.1428 16.7343 14.1428 18.0105C13.619 19.2302 12.7357 20.3215 11 20.3215C9.26421 20.3215 8.38092 19.2302 7.85711 18.0105Z" fill="#040823"/>
<path d="M2.77311 7.74999C4.30466 7.74999 9.42857 9.1571 9.42857 10.8928C9.42857 12.6286 4.30466 14.0357 2.77311 14.0357C1.30952 13.5119 0 12.6286 0 10.8928C0 9.1571 1.30952 8.2738 2.77311 7.74999Z" fill="#040823"/>
<path d="M19.2269 14.0357C17.6953 14.0357 12.5714 12.6286 12.5714 10.8929C12.5714 9.1571 17.6953 7.75 19.2269 7.75C20.6905 8.27381 22 9.1571 22 10.8929C22 12.6286 20.6905 13.5119 19.2269 14.0357Z" fill="#040823"/>
<circle cx="11" cy="10.8929" r="1.57143" fill="#040823"/>
</svg>
