<svg width="24" height="24" viewBox="0 0 24 24" fill="none" xmlns="http://www.w3.org/2000/svg">
<rect x="0.5" y="0.5" width="23" height="23" rx="11.5" fill="#222946"/>
<rect x="0.5" y="0.5" width="23" height="23" rx="11.5" stroke="#040823"/>
<rect x="10.7693" y="5" width="3.46154" height="15" rx="1.73077" fill="#FAFAFA"/>
<rect x="5" y="14.2308" width="3.46154" height="15" rx="1.73077" transform="rotate(-90 5 14.2308)" fill="#FAFAFA"/>
<line x1="7.6341" y1="8.13519" x2="11.0956" y2="11.5967" stroke="#FAFAFA" stroke-width="0.923077"/>
<line x1="7.6341" y1="8.13519" x2="11.0956" y2="11.5967" stroke="#FAFAFA" stroke-width="0.923077"/>
<line x1="7.6341" y1="8.13519" x2="11.0956" y2="11.5967" stroke="#FAFAFA" stroke-width="0.923077"/>
<line x1="9.94171" y1="10.4429" x2="16.8648" y2="17.3659" stroke="#FAFAFA" stroke-width="0.923077"/>
<line x1="9.94171" y1="10.4429" x2="16.8648" y2="17.3659" stroke="#FAFAFA" stroke-width="0.923077"/>
<line x1="9.94171" y1="10.4429" x2="16.8648" y2="17.3659" stroke="#FAFAFA" stroke-width="0.923077"/>
<line x1="11.2208" y1="14.6632" x2="17.3563" y2="8.14519" stroke="#FAFAFA" stroke-width="0.923077"/>
<line x1="11.2208" y1="14.6632" x2="17.3563" y2="8.14519" stroke="#FAFAFA" stroke-width="0.923077"/>
<line x1="11.2208" y1="14.6632" x2="17.3563" y2="8.14519" stroke="#FAFAFA" stroke-width="0.923077"/>
<line x1="6.99787" y1="17.3503" x2="13.3662" y2="11.5811" stroke="#FAFAFA" stroke-width="0.923077"/>
<line x1="6.99787" y1="17.3503" x2="13.3662" y2="11.5811" stroke="#FAFAFA" stroke-width="0.923077"/>
<line x1="6.99787" y1="17.3503" x2="13.3662" y2="11.5811" stroke="#FAFAFA" stroke-width="0.923077"/>
</svg>
