<svg width="49" height="58" viewBox="0 0 49 58" fill="none" xmlns="http://www.w3.org/2000/svg">
<g filter="url(#filter0_d_81_429)">
<path d="M4.18701 3H32.1609L44.187 13.7117V51.7129H37.5203H33.5988H30.3308H25.3635H19.8733H15.2981H9.41577H4.18701V3Z" fill="#D2D6E1"/>
<path d="M8.93945 10.9231C8.93945 10.7031 9.11781 10.5247 9.33783 10.5247H29.9731C30.0725 10.5247 30.1683 10.5619 30.2417 10.6289L39.1067 18.7231C39.1894 18.7985 39.2365 18.9053 39.2365 19.0173V47.2797C39.2365 47.6484 38.7789 47.8193 38.5373 47.5409L35.0261 43.4954C34.8532 43.2962 34.5381 43.3169 34.3928 43.537L31.5811 47.7946C31.4157 48.0451 31.0433 48.0296 30.8992 47.7663L28.6677 43.688C28.5225 43.4226 28.1462 43.4095 27.9829 43.6641L25.284 47.8712C25.1353 48.1029 24.802 48.1176 24.6336 47.8999L21.2557 43.5334C21.0899 43.3191 20.7633 43.3292 20.6111 43.5533L17.6496 47.9133C17.5016 48.1311 17.1868 48.148 17.0163 47.9473L13.2218 43.4782C13.0567 43.2837 12.7539 43.2924 12.6002 43.4961L9.6558 47.3973C9.42554 47.7024 8.93945 47.5396 8.93945 47.1574V10.9231Z" fill="#FAFAFA"/>
<rect x="13.6921" y="19.5347" width="20" height="3.36634" rx="0.398374" fill="#B0B4BE"/>
<rect x="13.6921" y="27.6534" width="13.0693" height="3.36634" rx="0.398374" fill="#060A23"/>
</g>
<defs>
<filter id="filter0_d_81_429" x="0.0751219" y="0.25874" width="48.2238" height="56.9367" filterUnits="userSpaceOnUse" color-interpolation-filters="sRGB">
<feFlood flood-opacity="0" result="BackgroundImageFix"/>
<feColorMatrix in="SourceAlpha" type="matrix" values="0 0 0 0 0 0 0 0 0 0 0 0 0 0 0 0 0 0 127 0" result="hardAlpha"/>
<feOffset dy="1.37063"/>
<feGaussianBlur stdDeviation="2.05594"/>
<feComposite in2="hardAlpha" operator="out"/>
<feColorMatrix type="matrix" values="0 0 0 0 0.823529 0 0 0 0 0.839216 0 0 0 0 0.882353 0 0 0 0.25 0"/>
<feBlend mode="normal" in2="BackgroundImageFix" result="effect1_dropShadow_81_429"/>
<feBlend mode="normal" in="SourceGraphic" in2="effect1_dropShadow_81_429" result="shape"/>
</filter>
</defs>
</svg>
