<svg width="40" height="50" viewBox="0 0 40 50" fill="none" xmlns="http://www.w3.org/2000/svg">
<path d="M0 0.465332H27.9739L40 11.1771V49.1782H33.3333H29.4118H26.1438H21.1765H15.6863H11.1111H5.22876H0V0.465332Z" fill="#FDDABF"/>
<path d="M4.75244 8.44968C4.75244 8.19584 4.95823 7.99005 5.21207 7.99005H25.7623C25.877 7.99005 25.9875 8.03292 26.0722 8.11025L34.8998 16.1702C34.9951 16.2573 35.0495 16.3805 35.0495 16.5096V44.581C35.0495 45.0064 34.5215 45.2035 34.2427 44.8823L30.892 41.0217C30.6926 40.7919 30.329 40.8158 30.1613 41.0697L27.4502 45.1751C27.2593 45.4641 26.8296 45.4462 26.6634 45.1424L24.5302 41.2439C24.3627 40.9377 23.9286 40.9226 23.7401 41.2163L21.1438 45.2635C20.9723 45.5308 20.5878 45.5478 20.3934 45.2965L17.1204 41.0655C16.9291 40.8183 16.5522 40.8299 16.3766 41.0885L13.5078 45.312C13.3371 45.5633 12.9738 45.5828 12.7772 45.3512L9.08432 41.0018C8.8938 40.7774 8.5444 40.7875 8.36708 41.0224L5.57894 44.7167C5.31328 45.0687 4.75244 44.8808 4.75244 44.4398V8.44968Z" fill="#FAFAFA"/>
<rect x="9.53809" y="17.1572" width="19.7577" height="3.06584" rx="0.459631" fill="#F9DFC7"/>
<rect x="9.53809" y="24.9921" width="14.3073" height="3.40649" rx="0.459631" fill="#F3B37A"/>
</svg>
