<svg width="40" height="49" viewBox="0 0 40 49" fill="none" xmlns="http://www.w3.org/2000/svg">
<path d="M0 0H27.9739L40 10.7117V48.7129H33.3333H29.4118H26.1438H21.1765H15.6863H11.1111H5.22876H0V0Z" fill="#FDDABF"/>
<path d="M4.75244 8.68732C4.75244 8.04523 5.27296 7.52472 5.91504 7.52472H25.4896C25.7797 7.52472 26.0593 7.63316 26.2736 7.82876L34.6708 15.4958C34.912 15.7161 35.0495 16.0277 35.0495 16.3544V42.2333C35.0495 43.3091 33.714 43.8078 33.0089 42.9954L31.4991 41.2558C30.9947 40.6747 30.075 40.7351 29.6509 41.3772L28.0933 43.7359C27.6106 44.4668 26.5237 44.4217 26.1032 43.6533L25.0989 41.8178C24.6752 41.0435 23.577 41.0052 23.1004 41.7481L21.6819 43.9595C21.248 44.6357 20.2753 44.6786 19.7837 44.0431L17.7133 41.3667C17.2296 40.7414 16.2763 40.7708 15.8321 41.4248L14.027 44.0822C13.5952 44.7179 12.6765 44.7673 12.1791 44.1814L9.65248 41.2057C9.17058 40.6381 8.2868 40.6635 7.83827 41.2578L6.84302 42.5765C6.17103 43.4669 4.75244 42.9916 4.75244 41.8761V8.68732Z" fill="#FAFAFA"/>
<rect x="9.53809" y="16.6918" width="8.51624" height="3.06584" rx="1.1626" fill="#F9DFC7"/>
<rect x="9.53809" y="24.5267" width="19.7577" height="3.40649" rx="1.1626" fill="#F3B37A"/>
</svg>
